# xmcd CD database file
#
# Track frame offsets:
#	150
#	29344
#	73385
#	96810
#	116364
#	138055
#	159286
#	188543
#	214673
#	226569
#
# Disc length: 3267 seconds
#
# Revision: 0
# Processed by: cddbd v1.5.2PL0 Copyright (c) Steve Scherf et al.
# Submitted via: CDex 1.60beta1-cs1
#
DISCID=760cc10a
DTITLE=Nunzio Rotondo - The Artistry of Nunzio Rotondo
DYEAR=1900
DGENRE=Jazz
TTITLE0=Whispering
TTITLE1=Bag's Groove
TTITLE2=Scrapple from the Apple
TTITLE3=De Concilio
TTITLE4=Noi E Lord
TTITLE5=Garineipaulus
TTITLE6=Epiphone
TTITLE7=Half Nelson
TTITLE8=Circeo
TTITLE9=Thrilling
EXTD=
EXTT0=
EXTT1=
EXTT2=
EXTT3=
EXTT4=
EXTT5=
EXTT6=
EXTT7=
EXTT8=
EXTT9=
PLAYORDER=
